<svg xmlns="http://www.w3.org/2000/svg" viewBox="0 0 32 32"><path fill="#3776AB" d="M15.9 3C11 3 11.3 5.13 11.3 5.13L11.31 7.34h4.68v.66H9.44s-3.14-.36-3.14 4.6c0 4.97 2.74 4.79 2.74 4.79h1.63v-2.3s-.09-2.74 2.7-2.74h4.65s2.61.04 2.61-2.52V5.58S21.03 3 15.9 3zm-2.58 1.48c.47 0 .84.38.84.85 0 .47-.37.85-.84.85-.47 0-.84-.38-.84-.85 0-.47.37-.85.84-.85z"/><path fill="#FFD43B" d="M16.1 29c4.9 0 4.6-2.13 4.6-2.13l-.01-2.21h-4.68v-.66h6.55s3.14.36 3.14-4.6c0-4.97-2.74-4.79-2.74-4.79h-1.63v2.3s.09 2.74-2.7 2.74h-4.65s-2.61-.04-2.61 2.52v4.24S10.97 29 16.1 29zm2.58-1.48c-.47 0-.84-.38-.84-.85 0-.47.37-.85.84-.85.47 0 .84.38.84.85 0 .47-.37.85-.84.85z"/></svg>
