<?xml version="1.0" encoding="UTF-8" standalone="no"?>
<svg
   xmlns:dc="http://purl.org/dc/elements/1.1/"
   xmlns:cc="http://creativecommons.org/ns#"
   xmlns:rdf="http://www.w3.org/1999/02/22-rdf-syntax-ns#"
   xmlns:svg="http://www.w3.org/2000/svg"
   xmlns="http://www.w3.org/2000/svg"
   xmlns:sodipodi="http://sodipodi.sourceforge.net/DTD/sodipodi-0.dtd"
   xmlns:inkscape="http://www.inkscape.org/namespaces/inkscape"
   version="1.0"
   width="262.000000pt"
   height="262.000000pt"
   viewBox="0 0 262.000000 262.000000"
   preserveAspectRatio="xMidYMid meet"
   id="svg16"
   sodipodi:docname="magician.svg"
   inkscape:version="0.92.5 (2060ec1f9f, 2020-04-08)">
  <defs
     id="defs20" />
  <sodipodi:namedview
     pagecolor="#ffffff"
     bordercolor="#666666"
     borderopacity="1"
     objecttolerance="10"
     gridtolerance="10"
     guidetolerance="10"
     inkscape:pageopacity="0"
     inkscape:pageshadow="2"
     inkscape:window-width="882"
     inkscape:window-height="480"
     id="namedview18"
     showgrid="false"
     inkscape:zoom="0.67557252"
     inkscape:cx="174.66667"
     inkscape:cy="174.66667"
     inkscape:window-x="72"
     inkscape:window-y="27"
     inkscape:window-maximized="0"
     inkscape:current-layer="svg16" />
  <metadata
     id="metadata2">
Created by potrace 1.16, written by Peter Selinger 2001-2019
<rdf:RDF>
  <cc:Work
     rdf:about="">
    <dc:format>image/svg+xml</dc:format>
    <dc:type
       rdf:resource="http://purl.org/dc/dcmitype/StillImage" />
  </cc:Work>
</rdf:RDF>
</metadata>
  <g
     transform="matrix(-0.1,0,0,-0.1,263.01025,262)"
     id="g14"
     style="fill:#444444;stroke:none">
    <path
       d="m 1460,2475 c -42,-84 -68,-125 -79,-125 -9,0 -71,9 -139,19 -81,12 -125,14 -129,8 -4,-6 37,-52 90,-102 53,-50 97,-98 97,-107 0,-9 -25,-69 -55,-133 -31,-65 -53,-120 -50,-123 3,-4 62,22 131,56 l 126,63 76,-70 c 42,-38 86,-78 96,-90 21,-23 46,-28 46,-8 0,6 -9,66 -20,132 -11,66 -20,123 -20,127 0,4 52,34 115,68 110,59 133,75 122,87 -3,3 -62,13 -132,22 -69,10 -129,22 -134,27 -5,5 -19,59 -30,119 -30,154 -30,155 -40,155 -4,0 -36,-56 -71,-125 z"
       id="path4"
       inkscape:connector-curvature="0" />
    <path
       d="m 636,2365 c -43,-80 -82,-147 -87,-150 -4,-3 -81,8 -169,25 -89,16 -166,30 -171,30 -24,0 -1,-35 88,-131 54,-58 106,-114 116,-126 17,-19 15,-25 -63,-176 -46,-90 -76,-158 -70,-162 6,-3 56,15 113,41 56,25 126,57 156,71 l 53,24 122,-121 c 116,-114 146,-136 146,-107 0,16 -28,248 -36,299 l -6,37 156,78 c 86,43 156,83 156,90 0,12 -22,17 -222,54 -88,16 -118,25 -122,38 -3,9 -15,87 -27,174 -18,127 -26,157 -38,157 -10,0 -46,-55 -95,-145 z"
       id="path6"
       inkscape:connector-curvature="0" />
    <path
       d="m 1966,1783 c -26,-40 -54,-73 -63,-73 -8,0 -42,7 -75,16 -94,24 -97,18 -35,-59 l 56,-67 -45,-76 c -25,-42 -43,-78 -41,-81 3,-2 39,10 82,27 43,17 81,30 84,28 4,-2 32,-30 61,-63 30,-33 57,-58 60,-55 3,3 3,42 1,88 l -3,82 58,26 c 33,14 70,30 83,35 13,5 21,12 18,15 -3,3 -41,15 -84,26 -43,11 -81,25 -85,31 -4,7 -8,37 -9,67 0,30 -4,66 -8,80 -7,23 -11,20 -55,-47 z"
       id="path8"
       inkscape:connector-curvature="0" />
    <path
       d="m 1364,1626 c -61,-27 -96,-102 -75,-159 17,-45 900,-1390 932,-1419 23,-22 39,-28 75,-28 83,0 134,51 134,132 -1,40 -34,94 -459,743 -253,385 -470,707 -482,717 -34,23 -89,29 -125,14 z"
       id="path10"
       inkscape:connector-curvature="0" />
    <path
       d="m 697,1523 c -2,-4 7,-57 20,-116 14,-60 22,-114 20,-121 -3,-7 -47,-39 -99,-71 -51,-31 -95,-59 -98,-62 -12,-11 31,-22 114,-28 134,-11 128,-6 162,-133 16,-61 33,-111 38,-112 6,-1 32,48 59,110 l 50,111 51,-5 c 143,-15 196,-17 196,-7 0,5 -40,44 -90,87 -49,42 -90,80 -90,85 0,5 18,54 40,109 42,105 46,120 31,120 -5,0 -50,-25 -100,-55 -51,-30 -98,-55 -106,-55 -8,0 -47,28 -87,63 -98,84 -106,89 -111,80 z"
       id="path12"
       inkscape:connector-curvature="0" />
  </g>
</svg>
