<?xml version="1.0" encoding="UTF-8" standalone="no"?>
<svg
   xmlns:dc="http://purl.org/dc/elements/1.1/"
   xmlns:cc="http://creativecommons.org/ns#"
   xmlns:rdf="http://www.w3.org/1999/02/22-rdf-syntax-ns#"
   xmlns:svg="http://www.w3.org/2000/svg"
   xmlns="http://www.w3.org/2000/svg"
   xmlns:sodipodi="http://sodipodi.sourceforge.net/DTD/sodipodi-0.dtd"
   xmlns:inkscape="http://www.inkscape.org/namespaces/inkscape"
   version="1.0"
   width="200.000000pt"
   height="200.000000pt"
   viewBox="0 0 200.000000 200.000000"
   preserveAspectRatio="xMidYMid meet"
   id="svg26"
   sodipodi:docname="flag_10.svg"
   inkscape:version="0.92.5 (2060ec1f9f, 2020-04-08)">
  <defs
     id="defs30" />
  <sodipodi:namedview
     id="namedview28"
     pagecolor="#ffffff"
     bordercolor="#666666"
     borderopacity="1.0"
     inkscape:pageshadow="2"
     inkscape:pageopacity="0.0"
     inkscape:pagecheckerboard="0"
     inkscape:document-units="pt"
     showgrid="false"
     inkscape:zoom="3.27375"
     inkscape:cx="62.313857"
     inkscape:cy="133.33333"
     inkscape:window-width="1848"
     inkscape:window-height="1016"
     inkscape:window-x="72"
     inkscape:window-y="27"
     inkscape:window-maximized="1"
     inkscape:current-layer="svg26" />
  <metadata
     id="metadata2">
Created by potrace 1.16, written by Peter Selinger 2001-2019
<rdf:RDF>
  <cc:Work
     rdf:about="">
    <dc:format>image/svg+xml</dc:format>
    <dc:type
       rdf:resource="http://purl.org/dc/dcmitype/StillImage" />
    <dc:title></dc:title>
  </cc:Work>
</rdf:RDF>
</metadata>
  <g
     transform="translate(0.000000,200.000000) scale(0.100000,-0.100000)"
     fill="#444444"
     stroke="none"
     id="g24">
    <path
       d="M1360 1894 c-17 -42 -12 -170 6 -188 8 -9 18 -16 20 -16 11 0 50 24 71 42 l22 20 26 -28 c110 -123 119 -139 88 -169 -30 -31 -113 3 -113 47 0 22 -16 24 -24 3 -11 -29 7 -75 46 -120 l40 -45 42 25 c48 28 159 59 187 52 11 -3 19 -1 19 3 0 13 -239 288 -294 338 -72 66 -120 79 -136 36z"
       id="path4" />
    <path
       d="M530 1705 c-128 -29 -144 -46 -87 -88 96 -72 220 -112 619 -197 179 -39 332 -70 340 -70 7 0 37 16 65 35 l53 35 -43 55 c-26 35 -56 60 -80 70 -20 8 -168 49 -329 91 -326 85 -417 96 -538 69z"
       id="path6" />
    <path
       d="M1672 1470 c-58 -26 -1080 -683 -1132 -727 -115 -99 -122 -221 -18 -291 55 -36 141 -37 208 -3 60 32 910 634 1028 729 152 122 175 191 92 274 -33 34 -43 38 -86 38 -27 0 -68 -9 -92 -20z"
       id="path8"
       style="fill:#444444;fill-opacity:1" />
    <path
       d="M748 1413 c-41 -47 -73 -117 -128 -284 -50 -148 -60 -190 -57 -230 3 -33 10 -54 22 -63 17 -12 25 -10 66 18 l47 31 56 186 c41 137 56 202 56 247 0 99 -25 137 -62 95z"
       id="path10" />
    <path
       d="M1897 1283 c-29 -56 -193 -196 -363 -311 -52 -34 -84 -76 -70 -89 6 -6 339 242 387 288 32 31 51 60 59 89 14 51 7 63 -13 23z"
       id="path12" />
    <path
       d="M115 1129 c-22 -10 -43 -23 -48 -28 -6 -6 10 -46 38 -98 52 -99 289 -407 308 -400 6 2 16 23 20 47 7 35 21 56 69 103 47 46 57 61 48 72 -6 7 -10 19 -9 27 5 39 -3 56 -31 68 -17 7 -34 9 -38 5 -4 -4 -1 -10 6 -12 45 -16 -34 -57 -97 -50 -36 4 -52 12 -72 37 -28 33 -49 97 -49 149 0 23 -10 40 -37 66 -44 40 -54 41 -108 14z"
       id="path14" />
    <path
       d="M1360 854 c-74 -54 -91 -76 -71 -89 20 -11 11 -112 -19 -237 -46 -190 -62 -334 -41 -367 22 -35 119 189 146 339 10 52 30 163 46 245 16 83 29 153 29 158 0 14 -15 5 -90 -49z"
       id="path16" />
    <path
       d="M1471 854 c-28 -36 -26 -71 5 -119 36 -54 85 -105 101 -105 9 0 13 -14 13 -43 0 -50 22 -77 62 -77 25 0 26 -3 25 -49 -2 -56 21 -91 60 -91 20 0 23 -5 23 -40 0 -57 28 -83 86 -78 24 2 44 0 44 -4 0 -16 30 -7 40 11 24 45 15 54 -49 47 -36 -4 -62 -3 -65 3 -4 6 5 33 20 61 24 47 25 53 11 67 -14 14 -20 14 -67 -1 -29 -9 -55 -14 -58 -11 -4 3 6 30 22 59 40 74 32 90 -40 83 -66 -7 -76 6 -45 56 39 63 18 90 -45 59 -34 -16 -36 -16 -50 3 -19 25 -18 64 2 86 17 19 9 45 -29 87 -27 29 -41 28 -66 -4z"
       id="path18" />
    <path
       d="M994 596 c-143 -101 -275 -188 -294 -194 -66 -23 -141 -8 -195 40 -19 16 -35 26 -35 21 0 -12 52 -67 75 -80 16 -9 17 -14 6 -26 -15 -18 1 -57 23 -57 20 0 39 27 32 45 -4 12 4 15 40 15 58 0 71 7 309 168 303 205 325 221 318 238 -3 7 -8 14 -12 13 -3 0 -123 -83 -267 -183z"
       id="path20" />
    <path
       d="M506 314 c-14 -37 -6 -139 14 -171 32 -52 94 -56 126 -8 13 20 14 35 5 91 -12 78 -22 94 -47 70 -21 -22 -46 -17 -59 12 -11 26 -30 29 -39 6z m93 -57 c24 15 31 1 31 -61 0 -47 -13 -66 -47 -66 -31 0 -55 40 -61 101 l-5 50 31 -18 c26 -15 35 -16 51 -6z"
       id="path22" />
  </g>
</svg>
