<?xml version="1.0" standalone="no"?>
<!DOCTYPE svg PUBLIC "-//W3C//DTD SVG 20010904//EN"
 "http://www.w3.org/TR/2001/REC-SVG-20010904/DTD/svg10.dtd">
<svg version="1.0" xmlns="http://www.w3.org/2000/svg"
 width="344.000000pt" height="344.000000pt" viewBox="0 0 344.000000 344.000000"
 preserveAspectRatio="xMidYMid meet">
<metadata>
Created by potrace 1.16, written by Peter Selinger 2001-2019
</metadata>
<g transform="translate(0.000000,344.000000) scale(0.100000,-0.100000)"
fill="#444444" stroke="none">
<path d="M2198 3419 c-192 -28 -399 -115 -588 -248 -107 -74 -307 -282 -383
-397 -120 -181 -189 -357 -206 -521 -6 -54 -8 -99 -6 -101 2 -3 66 23 142 56
335 148 518 179 694 117 l42 -15 129 127 128 128 -21 65 c-53 166 -14 371 132
689 22 46 39 90 39 97 0 15 -16 16 -102 3z"/>
<path d="M2880 3004 c-85 -25 -173 -50 -195 -55 -46 -12 -58 -24 -1644 -1604
-678 -676 -989 -992 -1002 -1020 -22 -48 -25 -132 -5 -178 18 -43 73 -96 116
-115 44 -18 113 -19 165 -3 33 11 258 230 1329 1300 893 892 1294 1298 1307
1326 10 22 19 51 19 65 0 14 18 88 40 165 41 144 45 166 33 164 -5 0 -78 -21
-163 -45z"/>
<path d="M3376 2293 c-16 -8 -88 -40 -160 -70 -255 -106 -390 -130 -550 -98
l-88 18 -130 -129 c-119 -119 -129 -131 -123 -159 26 -141 29 -178 18 -263
-14 -106 -55 -232 -138 -420 -35 -78 -60 -144 -56 -147 4 -2 48 0 98 5 238 25
510 164 730 374 256 244 409 536 447 854 7 58 2 62 -48 35z"/>
</g>
</svg>
