<svg xmlns="http://www.w3.org/2000/svg" xmlns:xlink="http://www.w3.org/1999/xlink" viewBox="0 0 58 66" fill="#fff" fill-rule="evenodd" stroke="#000" stroke-linecap="round" stroke-linejoin="round"><use xlink:href="#A" x="1" y="1"/><symbol id="A" overflow="visible"><g stroke="none" fill-rule="nonzero"><path d="M.002 32.046V16.772a1.36 1.36 0 0 1 .77-1.302L27.118.254c.474-.296 1.006-.356 1.48-.06l26.464 15.274a1.42 1.42 0 0 1 .71 1.302v30.5a1.42 1.42 0 0 1-.71 1.302L28.716 63.774a1.55 1.55 0 0 1-1.6 0L.712 48.558c-.474-.296-.7-.652-.7-1.244V32.04z" fill="#009438"/><path d="M18.65 26.36v17.8c0 2.012-1.6 3.788-3.73 3.73-1.3-.06-2.308-.592-3-1.716-.356-.532-.474-1.124-.474-1.776V19.672c0-1.66 1.006-2.84 2.308-3.374s2.604-.414 3.908 0c1.244.356 2.2 1.124 3 2.072L36.4 37.256c.06.06.12.2.236.296v-18c0-1.894 1.3-3.374 3.14-3.552 2.308-.296 3.848 1.36 4.084 3.08v25.2c0 1.4-.652 2.428-1.836 3.08-.888.474-1.836.592-2.84.532a6.46 6.46 0 0 1-3.908-1.658c-.592-.532-1.006-1.184-1.54-1.776l-15-17.94c0-.06-.06-.12-.12-.2z" fill="#fefefe"/></g></symbol></svg>