<?xml version="1.0" encoding="UTF-8" standalone="no"?>
<svg
   version="1.1"
   width="240"
   height="240"
   viewBox="0 0 240 240"
   id="svg4"
   sodipodi:docname="chest.svg"
   inkscape:version="1.1 (ce6663b3b7, 2021-05-25)"
   xmlns:inkscape="http://www.inkscape.org/namespaces/inkscape"
   xmlns:sodipodi="http://sodipodi.sourceforge.net/DTD/sodipodi-0.dtd"
   xmlns="http://www.w3.org/2000/svg"
   xmlns:svg="http://www.w3.org/2000/svg">
  <defs
     id="defs8" />
  <sodipodi:namedview
     id="namedview6"
     pagecolor="#ffffff"
     bordercolor="#666666"
     borderopacity="1.0"
     inkscape:pageshadow="2"
     inkscape:pageopacity="0.0"
     inkscape:pagecheckerboard="0"
     showgrid="false"
     inkscape:zoom="3.2151262"
     inkscape:cx="111.19315"
     inkscape:cy="175.26528"
     inkscape:window-width="2488"
     inkscape:window-height="1376"
     inkscape:window-x="2632"
     inkscape:window-y="27"
     inkscape:window-maximized="1"
     inkscape:current-layer="svg4" />
  <path
     id="path2"
     style="stroke-width:11.712"
     d="M 3.2148438 123.68359 L 3.2148438 217.38086 L 237.45508 217.38086 L 237.45508 123.68359 L 155.4707 123.68359 L 155.4707 135.39648 L 132.04688 158.82031 L 108.62305 158.82031 L 85.199219 135.39648 L 85.199219 123.68359 L 3.2148438 123.68359 z M 23.214844 143.68359 L 65.222656 143.68359 C 76.904161 155.40614 88.639569 167.10635 100.3418 178.82031 L 140.32812 178.82031 C 151.08979 168.05864 161.85161 157.29683 172.61328 146.53516 C 173.42964 145.56742 174.62762 144.89285 175.11719 143.68555 C 189.22982 143.68455 203.34245 143.68424 217.45508 143.68359 L 217.45508 197.38086 L 23.214844 197.38086 L 23.214844 143.68359 z " />
  <path
     id="path1239"
     d="m 108.62238,111.972 v 23.424 h 23.424 v -23.424 z"
     style="stroke-width:11.712" />
  <path
     id="path1237"
     style="stroke-width:11.712"
     d="M 38.349609 29.988281 A 35.13599 35.13599 0 0 0 3.2148438 65.123047 L 3.2148438 111.97266 L 85.199219 111.97266 L 85.199219 100.25977 L 155.4707 100.25977 L 155.4707 111.97266 L 237.45508 111.97266 L 237.45508 65.123047 A 35.13599 35.13599 0 0 0 202.31836 29.988281 L 38.349609 29.988281 z M 201.51172 49.988281 C 202.32777 49.975642 203.14392 49.997067 203.95508 50.091797 C 210.5762 50.650873 216.29514 56.210844 217.25781 62.746094 C 217.55541 72.483553 217.42568 82.231016 217.45508 91.972656 L 175.4707 91.972656 L 175.4707 80.259766 L 65.199219 80.259766 L 65.199219 91.972656 L 23.214844 91.972656 C 23.216044 86.421875 23.21755 80.871094 23.21875 75.320312 C 23.338301 71.418703 23.000119 67.506995 23.347656 63.613281 C 23.806775 56.558809 30.073682 50.554211 37.066406 50.068359 C 91.880798 49.957379 146.69671 49.995581 201.51172 49.988281 z " />
</svg>
