<?xml version="1.0" encoding="UTF-8" standalone="no"?>
<!-- Created with Inkscape (http://www.inkscape.org/) -->

<svg
   width="175.28331mm"
   height="23.77758mm"
   viewBox="0 0 175.28331 23.77758"
   version="1.1"
   id="svg5"
   inkscape:version="1.1 (ce6663b3b7, 2021-05-25)"
   sodipodi:docname="leekwars.svg"
   xmlns:inkscape="http://www.inkscape.org/namespaces/inkscape"
   xmlns:sodipodi="http://sodipodi.sourceforge.net/DTD/sodipodi-0.dtd"
   xmlns:xlink="http://www.w3.org/1999/xlink"
   xmlns="http://www.w3.org/2000/svg"
   xmlns:svg="http://www.w3.org/2000/svg">
  <sodipodi:namedview
     id="namedview7"
     pagecolor="#ffffff"
     bordercolor="#666666"
     borderopacity="1.0"
     inkscape:pageshadow="2"
     inkscape:pageopacity="0.0"
     inkscape:pagecheckerboard="0"
     inkscape:document-units="mm"
     showgrid="false"
     inkscape:zoom="1.5554293"
     inkscape:cx="316.63284"
     inkscape:cy="62.04075"
     inkscape:window-width="2488"
     inkscape:window-height="1376"
     inkscape:window-x="2632"
     inkscape:window-y="27"
     inkscape:window-maximized="1"
     inkscape:current-layer="g13578" />
  <defs
     id="defs2">
    <linearGradient
       inkscape:collect="always"
       id="linearGradient19630">
      <stop
         style="stop-color:#ffffff;stop-opacity:1"
         offset="0"
         id="stop19626" />
      <stop
         style="stop-color:#b3b3b3;stop-opacity:1"
         offset="1"
         id="stop19628" />
    </linearGradient>
    <linearGradient
       inkscape:collect="always"
       xlink:href="#linearGradient19630"
       id="linearGradient19632"
       x1="92.26207"
       y1="121.99945"
       x2="92.26207"
       y2="85.291016"
       gradientUnits="userSpaceOnUse" />
  </defs>
  <g
     inkscape:label="Calque 1"
     inkscape:groupmode="layer"
     id="layer1"
     transform="translate(-11.778358,-103.07307)">
    <g
       id="g13578">
      <g
         id="g14111"
         style="fill:url(#linearGradient19632);fill-opacity:1;fill-rule:nonzero;stroke:none;stroke-opacity:1;stroke-width:0.55;stroke-miterlimit:4;stroke-dasharray:none">
        <g
           id="g9113"
           style="fill:url(#linearGradient19632);fill-opacity:1;fill-rule:nonzero;stroke:none;stroke-opacity:1;stroke-width:0.55;stroke-miterlimit:4;stroke-dasharray:none">
          <g
             id="g17749"
             style="fill:url(#linearGradient19632);fill-opacity:1;stroke:none;stroke-opacity:1;stroke-width:0.55;stroke-miterlimit:4;stroke-dasharray:none">
            <g
               id="g18898"
               style="fill:url(#linearGradient19632);fill-opacity:1;stroke:none;stroke-opacity:1;stroke-width:0.55;stroke-miterlimit:4;stroke-dasharray:none">
              <path
                 d="m 11.778358,126.85053 v -19.62926 l 4.254125,-4.1482 v 19.52334 h 12.701214 v 4.25412 z"
                 style="font-size:17.0165px;line-height:1.25;font-family:'Da Mad Rave';-inkscape-font-specification:'Da Mad Rave';fill:url(#linearGradient19632);fill-opacity:1;fill-rule:nonzero;stroke-width:0.55;stroke:none;stroke-opacity:1;stroke-miterlimit:4;stroke-dasharray:none"
                 id="path5190"
                 sodipodi:nodetypes="ccccccc" />
              <path
                 id="path5192"
                 style="font-size:17.0165px;line-height:1.25;font-family:'Da Mad Rave';-inkscape-font-specification:'Da Mad Rave';fill:url(#linearGradient19632);fill-opacity:1;fill-rule:nonzero;stroke-width:0.55;stroke:none;stroke-opacity:1;stroke-miterlimit:4;stroke-dasharray:none"
                 d="m 31.342023,114.05281 v 12.79784 H 48.09005 v -4.254 H 35.596544 v -2.12752 H 48.09005 v -4.254 H 35.596544 v -2.127 H 48.09005 l 3.852633,-4.25401 H 35.493579 Z"
                 sodipodi:nodetypes="cccccccccccccc" />
              <path
                 style="color:#000000;-inkscape-font-specification:'Da Mad Rave';fill:url(#linearGradient19632);fill-opacity:1;fill-rule:nonzero;stroke-width:0.55;stroke:none;stroke-opacity:1;stroke-miterlimit:4;stroke-dasharray:none"
                 d="m 70.991531,114.19058 c 0,4.22002 0,8.44005 0,12.66007 1.418002,0 2.836002,0 4.254005,0 1.656231,-1.65623 3.312459,-3.31245 4.96869,-4.96869 1.888945,1.65624 3.77789,3.31246 5.666835,4.96869 2.127001,0 4.254005,0 6.381006,0 -3.057694,-2.61448 -6.115388,-5.22896 -9.173083,-7.84344 3.057695,-3.0577 6.115389,-6.1154 9.173083,-9.17309 -2.127001,0 -4.254005,0 -6.381006,0 -3.545176,3.545 -7.090349,7.09001 -10.635525,10.63501 0,-3.545 0,-7.09001 0,-10.63501 -1.418003,1.45215 -2.836003,2.90431 -4.254005,4.35646 z"
                 id="path5196" />
              <path
                 d="m 100.35055,126.85053 v -12.78679 l 4.25414,-4.22971 v 12.76238 h 4.25412 v -12.76238 h 4.25413 v 12.76238 h 4.25413 v -12.76238 h 4.25412 v 17.0165 z"
                 style="font-size:17.0165px;line-height:1.25;font-family:'Da Mad Rave';-inkscape-font-specification:'Da Mad Rave';fill:url(#linearGradient19632);fill-opacity:1;fill-rule:nonzero;stroke-width:0.55;stroke:none;stroke-opacity:1;stroke-miterlimit:4;stroke-dasharray:none"
                 id="path5198"
                 sodipodi:nodetypes="ccccccccccccc" />
              <path
                 style="color:#000000;-inkscape-font-specification:'Da Mad Rave';fill:url(#linearGradient19632);fill-opacity:1;fill-rule:nonzero;stroke-width:0.55;stroke:none;stroke-opacity:1;stroke-miterlimit:4;stroke-dasharray:none"
                 d="m 138.90481,116.21522 v -2.12706 h -8.30594 l -2.12706,2.12706 z m -14.68712,10.63531 v -12.76237 l 4.25412,-4.25413 h 14.68712 v 17.0165 h -4.25412 v -6.38119 h -10.433 v 6.38119 z"
                 id="path5200" />
              <path
                 id="path5202"
                 style="font-size:17.0165px;line-height:1.25;font-family:'Da Mad Rave';-inkscape-font-specification:'Da Mad Rave';fill:url(#linearGradient19632);fill-opacity:1;fill-rule:nonzero;stroke-width:0.55;stroke:none;stroke-opacity:1;stroke-miterlimit:4;stroke-dasharray:none"
                 d="m 145.84639,114.01001 c 0,4.28021 0,8.56043 0,12.84064 1.418,0 2.83601,0 4.25401,0 0,-2.12717 0,-4.25434 0,-6.38152 2.41075,2.12718 4.82151,4.25435 7.23226,6.38152 1.88011,0 3.76022,0 5.64033,0 -2.2071,-2.12717 -4.4142,-4.25434 -6.62129,-6.38152 2.21106,0 4.42211,0 6.63317,0 0,-3.545 0,-7.09001 0,-10.63501 -4.32891,0 -8.65782,0 -12.98673,0 -1.38392,1.39196 -2.76783,2.78392 -4.15175,4.17589 z m 4.25401,0.0781 c 2.87682,0 5.75364,0 8.63047,0 0,0.709 0,1.418 0,2.127 -2.87683,0 -5.75365,0 -8.63047,0 0,-0.709 0,-1.418 0,-2.127 z"
                 sodipodi:nodetypes="cccccccccccccccc" />
              <path
                 id="path5204"
                 style="font-size:17.0165px;line-height:1.25;font-family:'Da Mad Rave';-inkscape-font-specification:'Da Mad Rave';fill:url(#linearGradient19632);fill-opacity:1;fill-rule:nonzero;stroke-width:0.55;stroke:none;stroke-opacity:1;stroke-miterlimit:4;stroke-dasharray:none"
                 d="m 165.57409,113.84162 v 6.62751 h 12.50622 v 2.12752 h -12.50622 v 4.254 h 16.76074 V 116.21513 H 169.8281 v -2.127 h 12.50673 l 4.72684,-4.25401 h -17.33454 z"
                 sodipodi:nodetypes="cccccccccccccc" />
              <path
                 id="path8829"
                 style="font-size:17.0165px;line-height:1.25;font-family:'Da Mad Rave';-inkscape-font-specification:'Da Mad Rave';fill:url(#linearGradient19632);fill-opacity:1;fill-rule:nonzero;stroke-width:0.55;stroke:none;stroke-opacity:1;stroke-miterlimit:4;stroke-dasharray:none"
                 d="m 51.143844,114.04807 v 12.80258 h 16.748027 v -4.254 H 55.398365 v -2.12752 h 12.493506 v -4.254 H 55.398365 v -2.127 h 12.493506 l 4.058368,-4.25401 H 55.397935 Z"
                 sodipodi:nodetypes="cccccccccccccc" />
            </g>
          </g>
        </g>
      </g>
    </g>
  </g>
</svg>
