<svg width="662.488" height="89.868" viewBox="0 0 175.283 23.778" xmlns:xlink="http://www.w3.org/1999/xlink" xmlns="http://www.w3.org/2000/svg"><defs><linearGradient id="a"><stop style="stop-color:#fff;stop-opacity:1" offset="0"/><stop style="stop-color:#b3b3b3;stop-opacity:1" offset="1"/></linearGradient><linearGradient xlink:href="#a" id="b" x1="92.262" y1="121.999" x2="92.262" y2="85.291" gradientUnits="userSpaceOnUse"/></defs><g style="fill:url(#b);fill-opacity:1;fill-rule:nonzero;stroke:none;stroke-opacity:1;stroke-width:.55;stroke-miterlimit:4;stroke-dasharray:none" transform="translate(-11.778 -103.073)"><g style="fill:url(#b);fill-opacity:1;stroke:none;stroke-opacity:1;stroke-width:.55;stroke-miterlimit:4;stroke-dasharray:none"><path d="M11.778 126.85v-19.629l4.254-4.148v19.523h12.702v4.255zM31.342 114.053v12.798H48.09v-4.254H35.597v-2.128H48.09v-4.254H35.597v-2.127H48.09l3.853-4.254h-16.45Z" style="font-size:17.0165px;line-height:1.25;fill:url(#b);fill-opacity:1;fill-rule:nonzero;stroke-width:.55;stroke:none;stroke-opacity:1;stroke-miterlimit:4;stroke-dasharray:none"/><path style="color:#000;fill:url(#b);fill-opacity:1;fill-rule:nonzero;stroke-width:.55;stroke:none;stroke-opacity:1;stroke-miterlimit:4;stroke-dasharray:none" d="M70.992 114.19v12.66h4.254l4.968-4.968 5.667 4.969h6.381l-9.173-7.844 9.173-9.173h-6.38L75.245 120.47v-10.635l-4.254 4.357z"/><path d="M100.35 126.85v-12.786l4.255-4.23v12.762h4.254v-12.762h4.254v12.762h4.254v-12.762h4.254v17.017z" style="font-size:17.0165px;line-height:1.25;fill:url(#b);fill-opacity:1;fill-rule:nonzero;stroke-width:.55;stroke:none;stroke-opacity:1;stroke-miterlimit:4;stroke-dasharray:none"/><path style="color:#000;;fill:url(#b);fill-opacity:1;fill-rule:nonzero;stroke-width:.55;stroke:none;stroke-opacity:1;stroke-miterlimit:4;stroke-dasharray:none" d="M138.905 116.215v-2.127h-8.306l-2.127 2.127zm-14.687 10.636v-12.763l4.254-4.254h14.687v17.017h-4.254v-6.382h-10.433v6.382z"/><path style="font-size:17.0165px;line-height:1.25;fill:url(#b);fill-opacity:1;fill-rule:nonzero;stroke-width:.55;stroke:none;stroke-opacity:1;stroke-miterlimit:4;stroke-dasharray:none" d="M145.846 114.01v12.84h4.254v-6.38l7.233 6.38h5.64l-6.621-6.38h6.633v-10.636h-12.987l-4.152 4.176zm4.254.078h8.63v2.127h-8.63v-2.127zM165.574 113.842v6.627h12.506v2.128h-12.506v4.254h16.76v-10.636h-12.506v-2.127h12.507l4.727-4.254h-17.335zM51.144 114.048v12.803h16.748v-4.254H55.398v-2.128h12.494v-4.254H55.398v-2.127h12.494l4.058-4.254H55.398Z"/></g></g></svg>