<?xml version="1.0" encoding="UTF-8" standalone="no"?>
<!-- Created with Inkscape (http://www.inkscape.org/) -->

<svg
   width="181.4857mm"
   height="22.972879mm"
   viewBox="0 0 181.4857 22.972879"
   version="1.1"
   id="svg1"
   xmlns="http://www.w3.org/2000/svg"
   xmlns:svg="http://www.w3.org/2000/svg">
  <defs
     id="defs1" />
  <g
     id="layer1"
     transform="translate(-9.503386,-111.07218)">
    <path
       style="font-size:36.7566px;font-family:'Perfect DOS VGA 437 Win';-inkscape-font-specification:'Perfect DOS VGA 437 Win';fill:#ffffff;stroke:none;stroke-width:0.353095;stroke-linecap:square;stroke-linejoin:round"
       d="m 16.395248,131.74777 h 4.594575 v -2.29729 h 2.297287 v -2.29728 h 2.297288 v 6.89186 H 9.5033855 v -2.29729 h 2.2972875 v -18.3783 H 9.5033855 v -2.29729 h 6.8918625 2.297287 v 2.29729 h -2.297287 z m 22.972874,-9.18915 h -2.297287 v 9.18915 h 4.594575 v -2.29729 h 2.297287 v -2.29728 h 2.297287 v 6.89186 H 30.178972 v -2.29729 h 2.297288 v -18.3783 h -2.297288 v -2.29729 h 16.081012 v 6.89187 h -2.297287 v -2.29729 H 41.66541 v -2.29729 h -4.594575 v 6.89186 h 2.297287 v -2.29728 h 2.297288 v 6.89186 h -2.297288 z m 20.675587,0 h -2.297288 v 9.18915 h 4.594575 v -2.29729 h 2.297288 v -2.29728 h 2.297287 v 6.89186 H 50.854559 v -2.29729 h 2.297287 v -18.3783 h -2.297287 v -2.29729 h 16.081012 v 6.89187 h -2.297287 v -2.29729 h -2.297288 v -2.29729 h -4.594575 v 6.89186 h 2.297288 v -2.29728 h 2.297287 v 6.89186 h -2.297287 z m 25.270161,-2.29729 h -2.297287 v 4.59458 h 2.297287 v 2.29729 h 2.297288 v 6.89186 h -4.594575 v -6.89186 h -2.297287 v -2.29729 h -2.297288 v 9.18915 h -6.891862 v -2.29729 h 2.297287 v -18.3783 h -2.297287 v -2.29729 h 6.891862 v 9.18915 h 2.297288 v -2.29728 h 2.297287 v -6.89187 h 4.594575 v 6.89187 H 85.31387 Z m 34.45931,13.78373 h -4.59458 v -2.29729 h -2.29728 v -20.67559 h 4.59457 v 16.08102 h 2.29729 v -6.89187 h 2.29729 v 6.89187 h 2.29728 v -16.08102 h 4.59458 v 20.67559 h -2.29729 v 2.29729 h -4.59457 v -4.59458 h -2.29729 z m 22.97288,-18.3783 h -2.29729 v 2.29729 h -2.29729 v 4.59457 h 6.89186 v -4.59457 h -2.29728 z m 2.29728,18.3783 v -9.18915 h -6.89186 v 9.18915 h -4.59457 v -16.08101 h 2.29728 v -2.29729 h 2.29729 v -2.29729 h 2.29729 v -2.29729 h 2.29729 v 2.29729 h 2.29728 v 2.29729 h 2.29729 v 2.29729 h 2.29729 v 16.08101 z m 20.67559,-20.67559 h -4.59457 v 6.89186 h 4.59457 z m 0,11.48644 h -2.29728 v -2.29729 h -2.29729 v 11.48644 h -6.89186 v -2.29729 h 2.29728 v -18.3783 h -2.29728 v -2.29729 h 13.78372 v 2.29729 h 2.29729 v 6.89186 h -2.29729 v 4.59458 h 2.29729 v 9.18915 h -4.59458 z m 9.18915,2.29729 h 4.59457 v 4.59457 h 6.89187 v -6.89186 h -2.29729 v -2.29729 h -4.59458 v -2.29729 h -2.29728 v -2.29728 h -2.29729 v -4.59458 h 2.29729 v -2.29729 h 11.48643 v 2.29729 h 2.29729 v 4.59458 h -4.59457 v -4.59458 h -6.89187 v 4.59458 h 2.29729 v 2.29728 h 4.59458 v 2.29729 h 2.29728 v 2.29729 h 2.29729 v 6.89186 h -2.29729 v 2.29729 h -11.48643 v -2.29729 h -2.29729 z"
       id="text1"
       aria-label="LEEK WARS" />
  </g>
</svg>
