<?xml version="1.0" encoding="UTF-8" standalone="no"?>
<svg
   enable-background="new 0 0 595.28 841.89"
   viewBox="0 0 481.89497 622.325"
   version="1.1"
   id="svg3"
   sodipodi:docname="pointer.svg"
   width="32"
   height="41"
   inkscape:version="1.4.3 (fcd0343856, 2026-01-01)"
   xmlns:inkscape="http://www.inkscape.org/namespaces/inkscape"
   xmlns:sodipodi="http://sodipodi.sourceforge.net/DTD/sodipodi-0.dtd"
   xmlns="http://www.w3.org/2000/svg"
   xmlns:svg="http://www.w3.org/2000/svg">
  <defs
     id="defs3" />
  <sodipodi:namedview
     id="namedview3"
     pagecolor="#ffffff"
     bordercolor="#000000"
     borderopacity="0.25"
     inkscape:showpageshadow="2"
     inkscape:pageopacity="0.0"
     inkscape:pagecheckerboard="0"
     inkscape:deskcolor="#d1d1d1"
     inkscape:zoom="1.3814156"
     inkscape:cx="240.33318"
     inkscape:cy="310.18906"
     inkscape:window-width="2494"
     inkscape:window-height="1371"
     inkscape:window-x="0"
     inkscape:window-y="0"
     inkscape:window-maximized="1"
     inkscape:current-layer="svg3" />
  <path
     d="m 140.44,0 h 57.747 v 26.955 h 28.371 v 113.48 h 56.743 v 28.373 h 85.113 v 28.371 h 56.742 v 28.372 h 28.371 v 28.371 h 28.368 v 198.18 H 453.52 v 85.112 h -28.372 v 85.111 H 140.438 V 537.208 H 112.064 V 480.466 H 83.693 V 423.724 H 55.322 V 366.982 H 26.95 V 338.61 H 0 v -84.693 h 84.701 v 28.372 h 27.368 V 26.949 h 28.369 z"
     fill="#231f20"
     id="path1" />
  <path
     d="M 141.86,26.96 V 395.78 H 111.656 V 310.674 H 83.285 V 282.299 H 28.374 v 56.321 h 28.368 v 28.372 h 28.372 v 56.742 h 28.371 v 56.742 h 28.371 v 56.742 h 28.372 v 56.746 h 225.13 v -56.74 h 28.372 v -85.112 h 28.375 v -198.18 h -28.37 v -28.374 h -26.539 v 85.11 h -30.205 v -113.48 h -54.907 v 85.11 h -30.205 v -113.48 h -54.907 v 113.48 H 196.767 V 26.958 Z"
     fill="#1a171b"
     id="path2" />
  <path
     d="m 141.86,26.96 h 54.908 V 282.3 h 30.205 V 168.82 H 281.88 V 282.3 h 30.205 v -85.11 h 54.907 v 113.48 h 30.205 v -85.11 h 26.539 v 28.374 h 28.37 v 198.18 h -28.375 v 85.112 h -28.372 v 56.74 H 170.229 V 537.22 H 141.857 V 480.478 H 113.486 V 423.736 H 85.115 V 366.994 H 56.743 V 338.622 H 28.375 v -56.321 h 54.911 v 28.375 h 28.371 v 85.106 h 30.204 z"
     fill="#ffffff"
     id="path3" />
</svg>
