<?xml version="1.0" encoding="UTF-8" standalone="no"?>
<svg
   width="93.5"
   height="89.867996"
   viewBox="0 0 24.738505 23.778"
   version="1.1"
   id="svg40"
   sodipodi:docname="icon.svg"
   inkscape:version="1.2.1 (0b8a7e5fb6, 2022-09-14, custom)"
   xml:space="preserve"
   xmlns:inkscape="http://www.inkscape.org/namespaces/inkscape"
   xmlns:sodipodi="http://sodipodi.sourceforge.net/DTD/sodipodi-0.dtd"
   xmlns="http://www.w3.org/2000/svg"
   xmlns:svg="http://www.w3.org/2000/svg"><sodipodi:namedview
     id="namedview42"
     pagecolor="#ffffff"
     bordercolor="#000000"
     borderopacity="0.25"
     inkscape:showpageshadow="2"
     inkscape:pageopacity="0.0"
     inkscape:pagecheckerboard="true"
     inkscape:deskcolor="#d1d1d1"
     showgrid="false"
     inkscape:zoom="5.8880261"
     inkscape:cx="69.208253"
     inkscape:cy="47.299383"
     inkscape:window-width="2560"
     inkscape:window-height="1376"
     inkscape:window-x="2560"
     inkscape:window-y="27"
     inkscape:window-maximized="1"
     inkscape:current-layer="svg40"><inkscape:page
       x="0"
       y="0"
       width="24.738504"
       height="23.778"
       id="page2"
       margin="0"
       bleed="0" /></sodipodi:namedview><defs
     id="defs24" /><rect
     style="fill:#5fad1b;fill-opacity:1;stroke:none;stroke-width:0.406217;stroke-linecap:square;stroke-linejoin:round;stroke-dasharray:none;stroke-opacity:1"
     id="rect2"
     width="24.758459"
     height="23.79274"
     x="-0.0091643734"
     y="-0.0068079974" /><path
     style="fill:#ffffff;fill-opacity:1;stroke-width:0.939308"
     d="m 9.2511394,22.928701 c -0.040512,-0.680145 -0.1781285,-2.809092 -0.1938647,-2.999148 -0.012474,-0.150669 -0.010454,-0.163677 0.020796,-0.133543 0.01904,0.01836 0.241049,0.333858 0.4933603,0.701099 0.2523102,0.367244 0.466051,0.670353 0.474978,0.673576 0.0089,0.0032 0.18109,-0.354583 0.382584,-0.795126 0.201493,-0.440542 0.372332,-0.80124 0.379642,-0.801553 0.0073,-3.12e-4 0.206453,0.412581 0.44254,0.917539 0.236087,0.504959 0.446291,0.951886 0.46712,0.99317 l 0.03787,0.07506 0.44167,-0.753906 c 0.24292,-0.414647 0.455946,-0.773936 0.473395,-0.798419 0.03422,-0.04801 0.03441,-0.06562 -0.01698,1.602514 -0.01131,0.367242 -0.02718,0.915603 -0.03526,1.218578 l -0.0147,0.550864 H 10.941144 9.2779895 Z m 2.4075356,-2.489872 c -0.07158,-0.151567 -0.290116,-0.618515 -0.485619,-1.037661 -0.195502,-0.419147 -0.360466,-0.761923 -0.366587,-0.761724 -0.0062,1.99e-4 -0.191411,0.395396 -0.411756,0.878214 -0.220346,0.48282 -0.405637,0.877757 -0.411758,0.87764 -0.0062,-1.18e-4 -0.1988777,-0.274155 -0.4283497,-0.608972 L 9.1373836,19.177566 9.1123886,18.89141 c -0.028706,-0.328556 -0.012521,-0.812152 0.032735,-0.978631 0.077258,-0.284173 0.3433274,-0.661072 0.6781202,-0.960577 0.6643832,-0.594357 1.4432692,-1.076266 3.3536142,-2.074932 1.805674,-0.943947 2.131832,-1.143433 3.015844,-1.844566 1.032557,-0.818949 2.32638,-1.966735 4.00061,-3.5490512 l 0.561882,-0.5310358 1.541417,0.5495411 c 0.84778,0.3022477 1.547965,0.5560829 1.555965,0.5640769 0.01668,0.01667 -0.207386,0.214516 -1.417089,1.25123 -1.678811,1.438737 -3.196222,2.678386 -4.130183,3.374151 -0.621247,0.462806 -0.677478,0.501059 -1.711975,1.164596 -2.006651,1.28709 -2.74299,1.82165 -3.284406,2.38438 -0.229903,0.238953 -0.351832,0.413669 -0.510776,0.731904 -0.111567,0.223379 -0.944238,1.669523 -0.991671,1.722289 -0.0097,0.0108 -0.07621,-0.104391 -0.147796,-0.255956 z M 8.356691,17.802636 C 6.6654813,15.786819 5.5372645,14.122378 4.5859476,12.239714 3.4499899,9.9916437 2.7479766,7.7163403 2.4059145,5.1739871 2.3755092,4.9480235 2.3527215,4.7612176 2.3552577,4.7588629 c 0.00253,-0.00235 0.4202754,0.053785 0.9282953,0.1247447 0.5080191,0.070965 1.4745349,0.2056981 2.1478139,0.2994082 0.673278,0.093715 1.2397098,0.174932 1.2587374,0.1804936 0.0305,0.00892 0.034576,0.1094904 0.034435,0.8502023 -1.183e-4,0.6268339 0.00968,0.9446122 0.038578,1.2518456 0.2563296,2.7245757 1.198154,4.9899907 3.3060227,7.9521397 0.172347,0.242196 0.338012,0.472678 0.368143,0.512181 l 0.05478,0.07183 -0.192007,0.133276 c -0.5113764,0.354957 -0.9862491,0.792204 -1.2035139,1.108158 -0.2061687,0.299817 -0.3013553,0.549079 -0.3337567,0.874003 l -0.015111,0.151538 z m 2.115921,-2.51803 c -0.350037,-0.489619 -1.0238282,-1.489219 -1.0238282,-1.518897 0,-0.0089 0.1877949,-0.09462 0.4173214,-0.190425 1.3723108,-0.572822 2.3799648,-1.076122 3.2996208,-1.648086 2.194652,-1.364924 3.702536,-3.0696709 4.684671,-5.2962834 0.0702,-0.1591384 0.131518,-0.2958208 0.136273,-0.3037402 0.007,-0.011638 3.137636,1.3663164 3.163915,1.3925953 0.01255,0.012549 -0.213023,0.5917828 -0.28797,0.7394645 -0.06829,0.1345568 -0.07047,0.1364054 -0.135058,0.1138939 -0.06341,-0.022102 -0.07369,-0.014973 -0.302674,0.2099081 -1.359823,1.3355138 -3.603394,3.3328708 -4.643943,4.1343048 -0.721008,0.555324 -1.090731,0.777608 -2.648599,1.592393 -1.051332,0.549858 -1.64081,0.871833 -2.063603,1.127143 -0.118943,0.07183 -0.224109,0.130522 -0.233701,0.130437 -0.0096,-8.8e-5 -0.172682,-0.217305 -0.362425,-0.482708 z M 9.078458,13.157483 C 7.920808,11.173364 7.3178249,9.3198281 7.1543835,7.2429865 7.1223155,6.8354537 7.1229166,5.7232653 7.1554167,5.3315194 7.1690085,5.1677163 7.1760721,5.0296333 7.1711031,5.0246691 7.1661248,5.0196908 6.7175791,4.9541177 6.174304,4.8789223 5.6310281,4.8037213 5.1825423,4.7391759 5.1776673,4.7354768 5.1727872,4.7318167 5.2056583,4.5442817 5.250699,4.3188187 5.3432768,3.8553867 5.5601465,3.2093185 5.6275249,3.196219 5.6656989,3.188799 9.9208716,3.7032902 9.935947,3.7171507 9.940747,3.7214707 9.903385,3.8630975 9.853025,4.0317643 9.6546035,4.6962918 9.5184725,5.3537228 9.4346571,6.0522296 c -0.05603,0.4669826 -0.056809,1.6200431 -0.0014,2.0810422 0.1550017,1.2895063 0.5272949,2.4941902 1.1635179,3.7649782 0.1062,0.212122 0.242904,0.474041 0.303787,0.582042 0.06089,0.108002 0.106776,0.200285 0.10198,0.205076 -0.0378,0.0378 -1.6902428,0.7454 -1.7392305,0.744765 -0.014296,-1.86e-4 -0.097486,-0.122878 -0.1848718,-0.27265 z m 2.217101,-0.823177 C 11.126904,12.035597 10.677752,11.107039 10.56085,10.815404 l -0.115923,-0.289195 0.08399,-0.06692 c 1.663408,-1.3253839 2.732756,-2.6895284 3.485109,-4.4458838 0.158834,-0.3707965 0.429864,-1.1744495 0.532981,-1.5803837 0.03965,-0.1560773 0.0781,-0.2837686 0.08546,-0.2837564 0.01605,2.54e-5 3.122989,1.0656523 3.131326,1.0739886 0.02059,0.02059 -0.156823,0.73709 -0.230065,0.9291314 C 17.096081,7.2999 16.488226,8.391372 15.845553,9.1836913 15.02469,10.195692 13.77717,11.198002 12.338997,12.001007 c -0.323883,0.18084 -0.919493,0.494662 -0.93883,0.494662 -0.0074,0 -0.05449,-0.07262 -0.104599,-0.161364 z M 10.307017,10.132701 C 10.092273,9.4837693 9.940563,8.8037103 9.8560117,8.111014 9.8011182,7.6612838 9.8014,6.5463882 9.8565192,6.0811782 9.945079,5.3337737 10.108299,4.6025583 10.354607,3.8497368 c 0.08028,-0.2453585 0.150754,-0.4586256 0.15662,-0.4739278 0.0073,-0.019115 -0.01468,-0.027822 -0.07032,-0.027822 -0.04677,0 -0.08577,-0.012483 -0.09231,-0.029541 -0.01971,-0.051361 0.09689,-0.3459133 0.307918,-0.7777995 0.129784,-0.2656241 0.214137,-0.414015 0.231545,-0.4073346 0.01507,0.00582 0.676424,0.1813625 1.469692,0.3901828 0.793269,0.2088213 1.468827,0.3871142 1.501241,0.3962066 l 0.05893,0.016532 -0.11109,0.2448288 c -0.381898,0.8416454 -0.740871,1.8601332 -0.950668,2.6972471 -0.164946,0.6581571 -0.305309,1.4333914 -0.349184,1.9285673 -0.01489,0.16806 -0.0199,0.1801743 -0.138265,0.3338563 -0.2699,0.3504576 -0.477768,0.5808868 -0.937245,1.0389703 -0.400293,0.399079 -1.014803,0.9469269 -1.093924,0.9752559 -0.01139,0.004 -0.02513,-0.006 -0.03053,-0.02226 z"
     id="path3" /></svg>
