<?xml version="1.0" encoding="UTF-8" standalone="no"?>
<svg xmlns:inkscape="http://www.inkscape.org/namespaces/inkscape" xmlns:sodipodi="http://sodipodi.sourceforge.net/DTD/sodipodi-0.dtd" xmlns="http://www.w3.org/2000/svg" xmlns:svg="http://www.w3.org/2000/svg" version="1.1" viewBox="0 0 86 136" width="86" height="136" id="svg835" sodipodi:docname="leek1_front.svg" inkscape:version="1.2.1 (ef4d3fba62, 2022-07-19, custom)" filter="url(#s)">
  <sodipodi:namedview id="namedview837" pagecolor="#ffffff" bordercolor="#666666" borderopacity="1.0" inkscape:showpageshadow="2" inkscape:pageopacity="0.0" inkscape:pagecheckerboard="0" inkscape:deskcolor="#d1d1d1" showgrid="true" inkscape:zoom="14.051109" inkscape:cx="47.825405" inkscape:cy="42.736839" inkscape:window-width="2486" inkscape:window-height="1376" inkscape:window-x="2634" inkscape:window-y="27" inkscape:window-maximized="1" inkscape:current-layer="svg835">
    <inkscape:grid type="xygrid" id="grid956" spacingx="43"/>
  </sodipodi:namedview>
  <defs id="defs821">
    <filter id="s" color-interpolation-filters="sRGB" x="-0.12615481" y="-0.060508578" width="1.2482704" height="1.1204491">
      <feGaussianBlur result="result6" stdDeviation="3.15" id="feGaussianBlur814"/>
      <feComposite in="SourceGraphic" in2="result6" operator="atop" result="result8" id="feComposite816"/>
      <feComposite in="result8" in2="SourceAlpha" operator="atop" result="result9" id="feComposite818"/>
    </filter>
  </defs>
  <path id="leaf5" d="M 59.201236,18.175045 62.033836,6.3946571 47.981989,2.2995781 C 46.970724,22.842202 40.036815,33.092897 26.679673,43.271881 l 5.747219,9.693587 21.295594,-16.822148 z" fill="#168600" stroke="#000000" stroke-miterlimit="4.6462" stroke-width="1.51746"/>
  <path id="leaf4" d="M 26.914079,9.8475603 27.097974,0.92218068 42.348745,3.9799995 C 39.197971,24.417746 46.878664,36.38055 58.045921,47.764286 L 40.699832,55.064505 26.444056,29.925181 Z" fill="#199500" stroke="#000000" stroke-width="1.51746"/>
  <path id="leaf3" d="M 75.473043,19.516856 59.118813,12.711892 C 54.884255,33.046106 48.170277,37.170407 33.327363,46.078755 l 8.61209,7.35938 27.331899,-16.140889 c 2.099684,-5.915777 4.187314,-11.835127 6.201691,-17.78039 z" fill="#1CAA00" stroke="#000000" stroke-width="1.51746"/>
  <path id="leaf2" d="M 34.910346,70.945665 C 30.103702,56.196117 17.533485,38.82161 13.29299,5.889988 l 15.668001,1.4628674 c 1.924913,24.0874076 15.0325,46.0835326 20.70263,52.6944256 z" fill="#21C500" stroke="#000000" stroke-width="1.60804" sodipodi:nodetypes="ccccc"/>
  <path id="leaf1" d="M 35.309514,60.127571 C 46.267115,47.229736 60.061225,42.753457 68.039665,26.081674 l 13.566106,6.158949 c 0,0 -6.049811,8.546368 -13.225028,15.972979 -7.175174,7.427059 -15.501762,12.286403 -16.644215,17.162329 -1.142496,4.875926 -1.45359,6.202587 -1.385194,9.949059 0.06844,3.74674 -3.166775,6.489432 -3.166775,6.489432 L 35.577174,75.947983 C 34.344057,67.979834 32.22893,64.115881 35.309514,60.127571 Z" fill="#26E600" stroke="#000000" stroke-width="1.51746" style="stroke-linecap:square;stroke-linejoin:miter" sodipodi:nodetypes="ccccccccc"/>
  <path id="body" d="m 44.930669,135.12736 c 20.880565,-0.76763 6.071714,-15.60127 5.59797,-32.44268 -0.35636,-12.668271 0.542452,-34.120281 0.542452,-34.120281 l -4.77315,7.944884 -4.153865,-6.341374 -3.489669,8.41294 -4.535989,-9.954814 c 0,0 1.172985,21.298499 1.620868,34.745285 0.544513,16.3475 -11.688957,32.5238 9.191608,31.75649 z" fill="#ffffff" stroke="#000000" stroke-width="1.69108" sodipodi:nodetypes="cscccccscc"/>
  <ellipse transform="rotate(-1.2900143)" cx="46.768341" cy="109.39225" rx="2.012898" ry="1.6627853" stroke-width="1.32246" id="ellipse6097"/>
  <path d="m 41.989881,116.49749 c 5.449595,-0.52655 5.510497,-0.53667 10.274011,-1.21995" stroke="#000000" stroke-width="1.90954" id="neutral" style="stroke-width:1.96695;stroke-linecap:round;stroke-dasharray:none"/>
  <ellipse transform="rotate(-1.2900119)" cx="40.141701" cy="109.7177" rx="2.0094817" ry="1.6599631" stroke-width="1.32021" id="ellipse6100"/>
  
  
  
  
  
  
  
  
  
  
  
  
  
  
  
</svg>
