<?xml version="1.0" encoding="UTF-8" standalone="no"?>
<svg xmlns:inkscape="http://www.inkscape.org/namespaces/inkscape" xmlns:sodipodi="http://sodipodi.sourceforge.net/DTD/sodipodi-0.dtd" xmlns="http://www.w3.org/2000/svg" xmlns:svg="http://www.w3.org/2000/svg" version="1.1" viewBox="0 0 176 211" id="svg5776" height="211" width="176" sodipodi:docname="leek11_front.svg" inkscape:version="1.2.1 (ef4d3fba62, 2022-07-19, custom)" filter="url(#s)">
  <sodipodi:namedview id="namedview5778" pagecolor="#ffffff" bordercolor="#666666" borderopacity="1.0" inkscape:showpageshadow="2" inkscape:pageopacity="0.0" inkscape:pagecheckerboard="0" inkscape:deskcolor="#d1d1d1" showgrid="false" inkscape:zoom="42.962028" inkscape:cx="85.819971" inkscape:cy="176.91204" inkscape:window-width="2486" inkscape:window-height="1376" inkscape:window-x="2634" inkscape:window-y="27" inkscape:window-maximized="1" inkscape:current-layer="svg5776"/>
  <defs id="defs5626">
    <filter id="s" color-interpolation-filters="sRGB" x="-0.088639871" y="-0.064842846" width="1.1726249" height="1.128123">
      <feGaussianBlur result="result6" stdDeviation="4.65" id="feGaussianBlur1844"/>
      <feComposite in="SourceGraphic" in2="result6" operator="atop" result="result8" id="feComposite1846"/>
      <feComposite in="result8" in2="SourceAlpha" operator="atop" result="result9" id="feComposite1848"/>
    </filter>
  </defs>
  <path d="M 76.88592,7.162015 78.97976,1.5428112 103.9221,9.4899708 C 92.647,40.732956 103.0372,65.996741 115.70708,90.630708 L 97.87165,93.387406 71.157123,33.0013 Z" fill="#168200" stroke="#000000" stroke-width="2.42729" id="leaf10"/>
  <path d="M 126.26666,25.696547 125.82255,20.260878 99.60357,13.629581 C 101.71978,43.6635 84.66249,57.939603 65.58783,70.55717 l 16.3893,11.291806 42.57997,-33.1579 z" fill="#168600" stroke="#000000" stroke-miterlimit="4.6462" stroke-width="2.2865" id="leaf9"/>
  <path d="m 64.863997,10.468823 1.655601,-5.553075 22.858772,6.096606 c -8.8742,30.852223 1.56753,54.572408 14.04188,77.540768 L 87.4283,92.335919 60.772493,35.758422 Z" fill="#178D00" stroke="#000000" stroke-miterlimit="4.6462" stroke-width="2.26917" id="leaf8"/>
  <path d="m 135.00352,33.313415 -0.36461,-4.990448 -23.89532,-5.778691 c 1.70813,27.578301 -13.97653,40.904551 -31.49148,52.733521 l 14.88376,10.180696 39.13415,-30.988368 z" fill="#199500" stroke="#000000" stroke-width="2.09473" id="leaf7"/>
  <path d="m 48.788172,17.764239 1.075683,-5.379088 25.360313,2.750228 C 69.596579,44.980457 83.83906,65.718821 100.1721,85.497428 l -16.72025,5.5651 -35.852588,-49.239644 z" fill="#1A9F00" stroke="#000000" stroke-width="2.2885" id="leaf6"/>
  <path d="m 146.8507,50.221951 0.55769,-4.736543 -25.58397,-8.925657 c -3.42621,26.13018 -23.53081,36.335634 -45.38974,44.868758 l 14.6622,11.735259 49.72672,-23.342505 z" fill="#1CAA00" stroke="#000000" stroke-width="2.17382" id="leaf5"/>
  <path d="m 32.502666,28.525952 0.436599,-5.486946 28.639429,1.747505 C 59.535841,55.215791 78.33739,75.617498 99.33242,94.964674 L 81.49489,101.27841 34.58494,52.915773 Z" fill="#1FB700" stroke="#000000" stroke-width="2.43207" id="leaf4"/>
  <path d="m 155.97199,63.560926 1.39506,-5.154532 -24.66136,-12.179421 C 124.651,74.630652 102.27625,83.98774 78.39387,91.33974 l 12.98227,14.25665 55.00728,-21.053095 z" fill="#21C500" stroke="#000000" stroke-width="2.32337" id="leaf3"/>
  <path d="M 79.08761,112.80411 C 58.266968,95.489958 32.852141,71.878341 17.800277,33.427991 l 29.136732,2.086496 C 53.853456,68.38736 75.584474,86.928964 97.97775,107.66238 Z" fill="#23D500" stroke="#000000" stroke-width="2.38661" id="leaf2"/>
  <path d="m 74.02023,105.65014 c -0.307867,-9.996098 41.69929,-16.779809 59.50851,-29.257694 5.82679,-4.082321 14.87223,-14.864191 15.20493,-14.721323 0.33304,0.142735 20.97336,7.457023 24.47404,8.725148 3.50034,1.268226 -26.54083,22.943254 -38.14863,29.763039 -11.60604,6.81978 -30.79743,10.79813 -32.64545,16.48064 -1.84802,5.68215 -2.35123,7.22858 -2.24059,11.91455 0.11079,4.68632 -5.12224,7.00721 -5.12224,7.00721 l -19.722243,-7.81526 c -0.701538,-10.57783 -1.197896,-18.57909 -1.308226,-22.09631 z" fill="#26E600" stroke="#000000" stroke-width="2.15309" id="leaf1"/>
  <path d="m 91.94827,209.17221 c 33.1459,-1.04618 9.63815,-21.26208 8.88608,-44.21454 -0.56576,-17.26499 0.86107,-46.499 0.86107,-46.499 l -3.98331,4.41863 -3.03584,-5.42294 -3.93928,10.16408 -5.74431,-11.52061 c -1.10965,5.12624 -2.39747,10.0594 -3.85261,15.02969 -1.63281,-3.74 -6.188842,-12.24626 -6.188842,-12.24626 0,0 1.695302,28.6873 2.406372,47.01177 0.86432,22.27913 -18.55499,44.32416 14.59056,43.27742 z" fill="#ffffff" stroke="#000000" stroke-width="2.48733" id="body"/>
  <path d="m 92.734764,170.20122 c 0.0282,1.3363 -1.2117,2.44914 -2.77116,2.48556 -1.55945,0.0365 -2.84723,-1.01732 -2.87621,-2.35362 -0.0282,-1.33631 1.21163,-2.44915 2.77116,-2.48557 1.55949,-0.0365 2.84717,1.01733 2.87621,2.35363 z" stroke-width="26.8311" id="path5650"/>
  <path d="m 91.849939,170.0615 c 0.4254,-2.71974 -5.546818,-4.66795 -8.250446,-2.79864" fill="none" stroke="#000000" stroke-linecap="round" stroke-width="1.45351" id="angry2" sodipodi:nodetypes="cc"/>
  <path d="m 96.091707,169.19048 c -0.228855,-2.9712 2.810533,-4.31062 4.424773,-3.94787" fill="none" stroke="#000000" stroke-linecap="round" stroke-width="1.1143" id="angry3"/>
  
  
  
  
  
  
  
  
  
  
  
  
  
  
  
  
  
  
  
  
  
  
  
  
  
  
  
  
  
  
  
  
  
  
  
  
  
  
  
  
  
  
  
  
  
  
  
  
  
  
  
  
  
  
  
  
  <path d="m 101.16174,168.77536 c 0.0282,1.3363 -1.211705,2.44915 -2.771164,2.48557 -1.55946,0.0365 -2.84724,-1.01733 -2.87621,-2.35363 -0.0282,-1.3363 1.21163,-2.44915 2.77116,-2.48557 1.559499,-0.0365 2.847174,1.01733 2.876214,2.35363 z" stroke-linecap="round" stroke-linejoin="round" stroke-miterlimit="4.6462" stroke-width="26.8311" id="path5770"/>
  
  
  <path d="m 88.368114,179.46766 c 4.443532,-2.90431 9.384335,-3.49911 13.940676,-3.26073" fill="none" stroke="#000000" stroke-linecap="round" stroke-linejoin="round" stroke-width="2.57315" id="angry"/>
  
</svg>
