<?xml version="1.0" encoding="UTF-8" standalone="no"?>
<svg
   width="675.48798"
   height="89.867996"
   viewBox="0 0 178.72254 23.778"
   version="1.1"
   id="svg40"
   sodipodi:docname="leekwars_logo_with_icon.svg"
   inkscape:version="1.2.1 (0b8a7e5fb6, 2022-09-14, custom)"
   xmlns:inkscape="http://www.inkscape.org/namespaces/inkscape"
   xmlns:sodipodi="http://sodipodi.sourceforge.net/DTD/sodipodi-0.dtd"
   xmlns:xlink="http://www.w3.org/1999/xlink"
   xmlns="http://www.w3.org/2000/svg"
   xmlns:svg="http://www.w3.org/2000/svg">
  <sodipodi:namedview
     id="namedview42"
     pagecolor="#ffffff"
     bordercolor="#000000"
     borderopacity="0.25"
     inkscape:showpageshadow="2"
     inkscape:pageopacity="0.0"
     inkscape:pagecheckerboard="true"
     inkscape:deskcolor="#d1d1d1"
     showgrid="false"
     inkscape:zoom="2.2732619"
     inkscape:cx="71.92308"
     inkscape:cy="59.605978"
     inkscape:window-width="2560"
     inkscape:window-height="1376"
     inkscape:window-x="2560"
     inkscape:window-y="27"
     inkscape:window-maximized="1"
     inkscape:current-layer="svg40" />
  <defs
     id="defs24">
    <linearGradient
       id="a">
      <stop
         style="stop-color:#fff;stop-opacity:1"
         offset="0"
         id="stop18" />
      <stop
         style="stop-color:#b3b3b3;stop-opacity:1"
         offset="1"
         id="stop20" />
    </linearGradient>
    <linearGradient
       xlink:href="#a"
       id="b"
       x1="92.262001"
       y1="121.999"
       x2="92.262001"
       y2="85.291"
       gradientUnits="userSpaceOnUse" />
    <linearGradient
       inkscape:collect="always"
       xlink:href="#a"
       id="linearGradient1056"
       gradientUnits="userSpaceOnUse"
       x1="92.262001"
       y1="121.999"
       x2="92.262001"
       y2="85.291" />
    <linearGradient
       inkscape:collect="always"
       xlink:href="#a"
       id="linearGradient1058"
       gradientUnits="userSpaceOnUse"
       x1="92.262001"
       y1="121.999"
       x2="92.262001"
       y2="85.291" />
    <linearGradient
       inkscape:collect="always"
       xlink:href="#a"
       id="linearGradient1060"
       gradientUnits="userSpaceOnUse"
       x1="92.262001"
       y1="121.999"
       x2="92.262001"
       y2="85.291" />
    <linearGradient
       inkscape:collect="always"
       xlink:href="#a"
       id="linearGradient1062"
       gradientUnits="userSpaceOnUse"
       x1="92.262001"
       y1="121.999"
       x2="92.262001"
       y2="85.291" />
    <linearGradient
       inkscape:collect="always"
       xlink:href="#a"
       id="linearGradient1064"
       gradientUnits="userSpaceOnUse"
       x1="92.262001"
       y1="121.999"
       x2="92.262001"
       y2="85.291" />
    <linearGradient
       inkscape:collect="always"
       xlink:href="#a"
       id="linearGradient1066"
       gradientUnits="userSpaceOnUse"
       x1="92.262001"
       y1="121.999"
       x2="92.262001"
       y2="85.291" />
  </defs>
  <g
     style="fill:url(#b);fill-opacity:1;fill-rule:nonzero;stroke:none;stroke-width:0.55;stroke-miterlimit:4;stroke-dasharray:none;stroke-opacity:1"
     transform="matrix(0.85300151,0,0,0.85300151,19.0728,-84.437163)"
     id="g38">
    <g
       style="fill:url(#linearGradient1066);fill-opacity:1;stroke:none;stroke-width:0.55;stroke-miterlimit:4;stroke-dasharray:none;stroke-opacity:1"
       id="g36">
      <path
         d="m 11.778,126.85 v -19.629 l 4.254,-4.148 v 19.523 h 12.702 v 4.255 z m 19.564,-12.797 v 12.798 H 48.09 v -4.254 H 35.597 v -2.128 H 48.09 v -4.254 H 35.597 v -2.127 H 48.09 l 3.853,-4.254 h -16.45 z"
         style="font-size:17.0165px;line-height:1.25;fill:url(#linearGradient1056);fill-opacity:1;fill-rule:nonzero;stroke:none;stroke-width:0.55;stroke-miterlimit:4;stroke-dasharray:none;stroke-opacity:1"
         id="path26" />
      <path
         style="color:#000000;fill:url(#linearGradient1058);fill-opacity:1;fill-rule:nonzero;stroke:none;stroke-width:0.55;stroke-miterlimit:4;stroke-dasharray:none;stroke-opacity:1"
         d="m 70.992,114.19 v 12.66 h 4.254 l 4.968,-4.968 5.667,4.969 h 6.381 l -9.173,-7.844 9.173,-9.173 h -6.38 L 75.245,120.47 v -10.635 l -4.254,4.357 z"
         id="path28" />
      <path
         d="m 100.35,126.85 v -12.786 l 4.255,-4.23 v 12.762 h 4.254 v -12.762 h 4.254 v 12.762 h 4.254 v -12.762 h 4.254 v 17.017 z"
         style="font-size:17.0165px;line-height:1.25;fill:url(#linearGradient1060);fill-opacity:1;fill-rule:nonzero;stroke:none;stroke-width:0.55;stroke-miterlimit:4;stroke-dasharray:none;stroke-opacity:1"
         id="path30" />
      <path
         style="color:#000000;fill:url(#linearGradient1062);fill-opacity:1;fill-rule:nonzero;stroke:none;stroke-width:0.55;stroke-miterlimit:4;stroke-dasharray:none;stroke-opacity:1"
         d="m 138.905,116.215 v -2.127 h -8.306 l -2.127,2.127 z m -14.687,10.636 v -12.763 l 4.254,-4.254 h 14.687 v 17.017 h -4.254 v -6.382 h -10.433 v 6.382 z"
         id="path32" />
      <path
         style="font-size:17.0165px;line-height:1.25;fill:url(#linearGradient1064);fill-opacity:1;fill-rule:nonzero;stroke:none;stroke-width:0.55;stroke-miterlimit:4;stroke-dasharray:none;stroke-opacity:1"
         d="m 145.846,114.01 v 12.84 h 4.254 v -6.38 l 7.233,6.38 h 5.64 l -6.621,-6.38 h 6.633 v -10.636 h -12.987 z m 4.254,0.078 h 8.63 v 2.127 h -8.63 z m 15.474,-0.246 v 6.627 h 12.506 v 2.128 h -12.506 v 4.254 h 16.76 v -10.636 h -12.506 v -2.127 h 12.507 l 4.727,-4.254 h -17.335 z m -114.43,0.206 v 12.803 h 16.748 v -4.254 H 55.398 v -2.128 h 12.494 v -4.254 H 55.398 v -2.127 h 12.494 l 4.058,-4.254 H 55.398 Z"
         id="path34" />
    </g>
  </g>
  <path
     id="leaf6"
     d="M 9.1771912,1.368834 9.6688645,0.3682074 13.410605,1.3537123 C 10.735176,6.9116042 11.673736,11.105574 12.992601,15.15633 L 10.078667,15.90606 7.5363599,5.9106485 Z"
     fill="#006e00"
     stroke="#000000"
     stroke-miterlimit="4.6462"
     stroke-width="0.398616" />
  <path
     id="leaf5"
     d="M 17.345596,4.7726097 17.537814,3.8578889 13.744206,2.5580062 C 12.629097,7.6098278 9.2653459,9.8817169 5.6649529,11.861039 l 2.0271321,2.011013 c 4.728003,-2.540245 7.908658,-4.2255459 9.653511,-9.0994423 z"
     fill="#008200"
     stroke="#000000"
     stroke-miterlimit="4.6462"
     stroke-width="0.373285"
     sodipodi:nodetypes="cccccc" />
  <path
     id="leaf4"
     d="M 3.5320117,2.510371 3.8957244,1.5130559 9.098655,2.1477438 C 7.1515712,7.6827172 9.5740208,11.61614 12.456265,15.381238 L 8.8339403,16.337848 2.6584557,6.9885399 Z"
     fill="#009600"
     stroke="#000000"
     stroke-miterlimit="4.6462"
     stroke-width="0.450571" />
  <path
     id="leaf3"
     d="M 20.917149,7.4987004 21.257689,6.6056811 17.450264,4.9120176 C 15.51316,9.8383912 11.621627,11.754989 7.5243749,13.354895 l 2.1500597,2.967338 9.2119064,-5.130117 z"
     fill="#00aa00"
     stroke="#000000"
     stroke-miterlimit="4.6462"
     stroke-width="0.385963" />
  <path
     id="leaf2"
     d="M 7.3886736,18.437059 C 4.4566449,15.025717 1.0080194,10.410332 0.25807065,3.2165667 L 5.5306326,3.9541574 C 5.0724498,10.03117 8.1079182,13.677399 11.149934,17.731554 c -1.2537168,0.235314 1.25251,19.271248 -3.7612604,0.705955 z"
     fill="#00be00"
     stroke="#000000"
     stroke-miterlimit="4.6462"
     stroke-width="0.442151" />
  <path
     id="leaf1"
     d="M 7.7001008,17.919475 C 7.9695852,16.05332 12.600596,14.352967 14.54724,13.046286 16.493884,11.739495 20.520625,7.835569 20.520625,7.835569 l 3.819101,1.3621568 c 0,0 -5.184779,4.5843622 -7.355891,5.9911622 -2.171113,1.406798 -4.39223,2.705694 -4.88569,3.789441 -0.49346,1.083693 -0.265756,1.13726 -0.397795,2.012439 -0.132039,0.875244 -0.555723,1.199546 -0.555723,1.199546 L 8.0339646,21.848368 C 8.6710982,22.514934 7.4732408,19.782636 7.7001779,17.919551 Z"
     fill="#00e600"
     stroke="#000000"
     stroke-miterlimit="4.6462"
     stroke-width="0.379656"
     sodipodi:nodetypes="ccccscccccc" />
  <path
     id="body"
     d="m 10.441545,36.338681 c 5.406674,-0.198546 1.572163,-4.035075 1.449456,-8.390899 -0.09229,-3.276463 0.151348,-8.754321 0.151348,-8.754321 L 10.778094,21.349223 9.7272264,19.103571 8.8664748,20.974473 7.5407824,19.050846 c 0,0 0.404798,5.596733 0.5207725,9.074528 0.1409984,4.228072 -3.0266629,8.411951 2.3800121,8.213364 z"
     fill="#ffffff"
     stroke="#000000"
     stroke-miterlimit="4.6462"
     stroke-width="0.437632"
     sodipodi:nodetypes="cccccccscc" />
</svg>
