<svg width="119" height="48" viewBox="0 0 119 48" fill="none" xmlns="http://www.w3.org/2000/svg">
<g clip-path="url(#clip0_2019_16734)">
<path d="M80.5357 35.889L79.0809 25.6657C77.117 26.4466 76.0427 28.0499 76.3671 29.9922L78.0059 38.1421C78.1352 38.8834 78.5224 39.5573 79.1011 40.0481C79.6797 40.539 80.4137 40.8162 81.1772 40.8323H81.7926L90.1843 20.6844L89.0103 20.8571C88.2396 20.9816 87.5152 21.3022 86.9088 21.787C86.3024 22.2719 85.8351 22.9044 85.5531 23.6218L80.5357 35.889Z" fill="white"/>
<path d="M24.7853 28.219C23.1443 25.4565 18.9867 24.9865 16.3805 26.6615C12.9618 28.694 12.1021 33.7361 13.8892 37.1162C14.3398 38.1132 15.047 38.9769 15.9408 39.6219C16.8346 40.2668 17.884 40.6706 18.9849 40.7931C20.0859 40.9157 21.2003 40.7528 22.2177 40.3206C23.2351 39.8884 24.1202 39.2019 24.7853 38.3291V40.8322H27.713V25.2408C27.0172 25.4676 26.3875 25.857 25.8776 26.3756C25.3678 26.8942 24.993 27.5267 24.7853 28.219ZM24.2136 35.7299C23.8672 36.4301 23.3279 37.0204 22.6574 37.4333C21.9868 37.8461 21.2119 38.0651 20.4211 38.0651C19.6302 38.0651 18.8553 37.8461 18.1847 37.4333C17.5142 37.0204 16.9749 36.4301 16.6285 35.7299C15.1301 32.8005 16.6489 28.4303 20.3934 28.4611C24.1772 28.4182 25.7222 32.7625 24.2136 35.7299Z" fill="#202020"/>
<path d="M41.4873 26.3427C38.6622 24.9328 35.1213 25.9716 33.8288 28.3336V28.3258C33.8703 27.6406 33.6608 26.9634 33.2383 26.4175C32.8158 25.8716 32.2084 25.4933 31.5266 25.3512L30.9287 25.2416V40.8337H33.8288V32.4666C33.8364 31.9986 33.9381 31.5366 34.1279 31.1074C34.3178 30.6782 34.5921 30.2903 34.9349 29.9661C35.2778 29.6419 35.6824 29.3877 36.1255 29.2183C36.5686 29.0489 37.0414 28.9676 37.5166 28.9791C40.0165 28.9791 40.8799 30.4048 40.8392 32.524V38.011C40.8392 38.3816 40.9133 38.7485 41.0573 39.0908C41.2013 39.4332 41.4124 39.7442 41.6784 40.0062C41.9445 40.2682 42.2603 40.476 42.608 40.6177C42.9556 40.7595 43.3281 40.8324 43.7043 40.8323H43.74V32.3191C43.7065 30.0552 43.5923 27.4288 41.4873 26.3427Z" fill="#202020"/>
<path d="M106.608 20.6271L106.641 25.6628H104.7V28.1609H106.641V37.4858L106.698 37.9744C106.781 38.6889 107.102 39.3563 107.61 39.8731C108.118 40.3898 108.785 40.727 109.507 40.8322V28.1609H110.923C111.474 28.161 112.007 27.9656 112.425 27.6104C112.842 27.2553 113.116 26.7641 113.196 26.2266L113.278 25.6649H109.507L109.52 24.255C109.521 22.2061 108.793 20.6271 106.608 20.6271Z" fill="white"/>
<path d="M67.1105 21.6565C66.3747 21.0343 65.4482 20.6732 64.4792 20.6311C63.5103 20.589 62.5551 20.8684 61.7665 21.4244L59.1341 23.2807C59.6256 23.7312 60.2458 24.022 60.9106 24.1136C61.5755 24.2052 62.2529 24.0933 62.851 23.7929L67.1105 21.6565Z" fill="#202020"/>
<path d="M68.3398 27.6874C67.7281 27.058 66.9961 26.5538 66.186 26.2037C65.3432 25.8398 64.4317 25.6555 63.5115 25.6628C62.4741 25.6533 61.4451 25.8466 60.4841 26.2316C59.5795 26.5943 58.7637 27.1426 58.0911 27.84C57.4135 28.5505 56.8828 29.3842 56.5287 30.2944C56.1426 31.2948 55.9516 32.3579 55.9657 33.4281C55.9403 34.7694 56.2871 36.0922 56.9687 37.2537C57.6296 38.3581 58.5837 39.2642 59.7284 39.8744C60.9698 40.5291 62.3611 40.8586 63.769 40.8315C64.4875 40.8282 65.2023 40.7301 65.8944 40.5399C66.6063 40.3507 67.2954 40.0865 67.9499 39.7519C68.5559 39.4485 69.1112 39.0557 69.5967 38.587C68.8936 37.9853 67.9853 37.6682 67.0545 37.6993C66.7287 37.7229 66.406 37.7786 66.0915 37.8655C65.4327 38.0841 64.7446 38.2049 64.0497 38.2238C63.1026 38.2417 62.1652 38.0325 61.3184 37.6141C60.5491 37.2256 59.9127 36.6229 59.4884 35.8811C59.1533 35.2867 58.9463 34.6307 58.8803 33.9539H70.188L70.2164 32.736C70.2443 31.7772 70.0865 30.8219 69.7516 29.9212C69.4402 29.0897 68.9598 28.3296 68.3398 27.6874ZM60.9489 28.8659C61.7401 28.4648 62.6221 28.2693 63.5115 28.2978C64.1205 28.2937 64.7217 28.4323 65.2655 28.7023C65.8094 28.9722 66.2802 29.3657 66.6392 29.8503C66.9946 30.3291 67.2089 30.8954 67.2582 31.4866V31.6807H58.9879C59.0683 31.283 59.1975 30.8964 59.3727 30.5294C59.7058 29.8244 60.2577 29.2418 60.9489 28.8659Z" fill="#202020"/>
<path d="M101.015 27.6874C100.403 27.0581 99.6713 26.5539 98.8612 26.2037C98.0181 25.8398 97.1064 25.6554 96.1859 25.6628C95.1488 25.6533 94.12 25.8467 93.1593 26.2316C92.2547 26.5942 91.4389 27.1425 90.7662 27.84C90.0887 28.5506 89.5581 29.3842 89.2038 30.2944C88.8177 31.2948 88.6267 32.3579 88.6409 33.4281C88.614 34.7696 88.9596 36.0929 89.6403 37.2552C90.3009 38.3596 91.2547 39.2656 92.3992 39.8758C93.6406 40.5305 95.0319 40.8601 96.4398 40.8329C97.1583 40.8296 97.8731 40.7315 98.5651 40.5414C99.2771 40.3521 99.9662 40.0879 100.621 39.7533C101.227 39.45 101.783 39.0572 102.268 38.5884C101.564 37.9859 100.654 37.6687 99.7224 37.7008C99.3966 37.7243 99.0739 37.78 98.7594 37.867C98.1006 38.0856 97.4125 38.2063 96.7176 38.2252C95.7705 38.2431 94.8331 38.0339 93.9863 37.6155C93.2171 37.227 92.5807 36.6243 92.1562 35.8825C91.8209 35.2882 91.6136 34.6321 91.5474 33.9553H102.855L102.884 32.7374C102.912 31.7786 102.754 30.8233 102.419 29.9226C102.11 29.0914 101.632 28.3309 101.015 27.6874ZM93.6241 28.8659C94.4152 28.4648 95.2973 28.2692 96.1866 28.2978C96.7956 28.2936 97.3969 28.4322 97.9407 28.7022C98.4846 28.9721 98.9554 29.3657 99.3143 29.8503C99.67 30.329 99.8842 30.8953 99.9333 31.4866V31.6807H91.6631C91.7434 31.283 91.8726 30.8964 92.0479 30.5294C92.381 29.8244 92.9329 29.2418 93.6241 28.8659Z" fill="white"/>
<path d="M9.79919 33.5319C8.82596 32.5777 7.59161 32.1929 6.0743 31.7796C5.2008 31.6146 4.36364 31.2994 3.60123 30.8482C3.42026 30.6999 3.27247 30.5162 3.16718 30.3088C3.06189 30.1014 3.0014 29.8748 2.98951 29.6432C2.95605 28.33 4.33443 27.883 5.49096 27.9188C6.80651 28.0081 8.03832 28.587 8.93653 29.5379L10.7171 27.8901C8.62813 25.4214 4.25587 24.7644 1.64169 26.7539C0.821047 27.3916 0.287085 28.321 0.154482 29.3422C0.0218799 30.3635 0.301211 31.3952 0.93249 32.2159C1.97918 33.375 3.41284 33.8522 5.15782 34.3243C6.00418 34.5084 6.81888 34.8127 7.57634 35.2277C7.75267 35.3897 7.891 35.5877 7.98164 35.8078C8.07229 36.028 8.11307 36.2649 8.10116 36.5021C8.08924 36.7394 8.02492 36.9712 7.91266 37.1815C7.80041 37.3917 7.64294 37.5753 7.45123 37.7194C6.95763 38.0546 6.3689 38.2272 5.76954 38.2123C4.78439 38.2802 3.79656 38.1243 2.88233 37.7565C1.96809 37.3887 1.1519 36.8188 0.496793 36.091L0.448791 36.1547C0.25412 36.4307 0.121006 36.7442 0.0582218 37.0745C-0.0045622 37.4048 0.00441154 37.7444 0.0845372 38.071C0.164663 38.3977 0.31413 38.7039 0.523098 38.9695C0.732065 39.2352 0.99579 39.4542 1.29691 39.6122C3.58087 40.9991 7.6709 41.6289 9.79556 39.1988C10.9266 37.9049 11.0757 34.7355 9.79919 33.5319Z" fill="#202020"/>
<path d="M48.2475 20.6271V25.6628H46.3054V28.1609H48.2475V37.4858L48.2999 37.9357C48.3772 38.6572 48.6954 39.3329 49.2045 39.8571C49.7137 40.3813 50.3851 40.7242 51.1134 40.8322V28.1609H52.5288C53.0803 28.1608 53.6132 27.9653 54.0304 27.6102C54.4476 27.2551 54.7212 26.764 54.8012 26.2266L54.8848 25.6649H51.1134V24.3281C51.1134 22.2799 50.4318 20.6271 48.2475 20.6271Z" fill="#202020"/>
<path d="M118.999 42.2393L88.0808 47.8101C86.5676 48.083 85.0147 48.0594 83.5107 47.741C82.0068 47.4225 80.5813 46.8153 79.3157 45.9541C78.05 45.0929 76.9691 43.9945 76.1345 42.7217C75.3 41.4489 74.7282 40.0266 74.4519 38.5361L68.7151 7.64418L111.155 0L118.999 42.2393Z" fill="#6CBE99"/>
<path d="M106.593 20.6163L106.627 25.6499H104.686V28.1459H106.627V37.4665L106.683 37.9551C106.767 38.6692 107.087 39.3363 107.595 39.8527C108.103 40.3692 108.769 40.7062 109.491 40.8114V28.1459H110.906C111.457 28.1459 111.99 27.9505 112.407 27.5953C112.824 27.2401 113.098 26.7489 113.177 26.2116L113.26 25.6506H109.491L109.504 24.2414C109.505 22.1946 108.777 20.6163 106.593 20.6163Z" fill="white"/>
<path d="M101.003 27.673C100.392 27.0438 99.6602 26.5398 98.8503 26.1901C98.0076 25.8264 97.0964 25.6423 96.1764 25.6499C95.1398 25.6403 94.1116 25.8334 93.1513 26.218C92.2469 26.5804 91.4314 27.1284 90.759 27.8256C90.0819 28.5359 89.5515 29.369 89.1973 30.2787C88.8113 31.2785 88.6203 32.3412 88.6343 33.4108C88.6077 34.7517 88.9533 36.0742 89.6337 37.2358C90.294 38.3395 91.2474 39.2451 92.3912 39.855C93.632 40.5091 95.0225 40.8384 96.4296 40.8114C97.1478 40.8082 97.8623 40.7104 98.5542 40.5206C99.2657 40.3313 99.9544 40.0671 100.608 39.7325C101.214 39.4294 101.77 39.0368 102.255 38.5683C101.552 37.9672 100.645 37.6503 99.7144 37.6814C99.3888 37.7051 99.0664 37.7608 98.7521 37.8476C98.0938 38.0661 97.4062 38.1869 96.7118 38.2058C95.7651 38.2236 94.8282 38.0144 93.982 37.5961C93.213 37.2078 92.5769 36.6054 92.1526 35.8638C91.8176 35.2697 91.6106 34.6139 91.5445 33.9374H102.846L102.875 32.7195C102.903 31.7612 102.745 30.8064 102.411 29.9061C102.101 29.0753 101.622 28.3154 101.003 27.673ZM93.6161 28.8508C94.4068 28.4498 95.2883 28.2543 96.1772 28.2827C96.7855 28.279 97.386 28.4178 97.9292 28.6876C98.4723 28.9574 98.9426 29.3505 99.3013 29.8345C99.6567 30.313 99.8709 30.8791 99.9202 31.4701V31.6642H91.6558C91.736 31.2668 91.8649 30.8804 92.0399 30.5136C92.3729 29.8087 92.9249 29.2264 93.6161 28.8508Z" fill="white"/>
<path d="M80.6332 36.0351L79.1319 25.647C77.2363 26.4021 76.1998 27.951 76.5133 29.8266L78.1914 38.213C78.3167 38.9287 78.691 39.5791 79.25 40.0527C79.809 40.5263 80.5179 40.7935 81.2551 40.8086H81.8493L90.1771 20.6715L89.0438 20.8392C88.2995 20.9599 87.6001 21.27 87.0148 21.7387C86.4295 22.2073 85.9786 22.8184 85.7066 23.5114L80.6332 36.0351Z" fill="white"/>
</g>
<defs>
<clipPath id="clip0_2019_16734">
<rect width="119" height="48" fill="white"/>
</clipPath>
</defs>
</svg>
