<?xml version="1.0" encoding="UTF-8"?>
<svg id="Layer_1" xmlns="http://www.w3.org/2000/svg" version="1.1" viewBox="0 0 2208.4 837.9">
  <!-- Generator: Adobe Illustrator 30.2.1, SVG Export Plug-In . SVG Version: 2.1.1 Build 1)  -->
  <defs>
    <style>
      .st0 {
        fill: #282f35;
      }

      .st1 {
        fill: #6923f4;
      }
    </style>
  </defs>
  <circle class="st1" cx="106" cy="256.3" r="106"/>
  <path class="st0" d="M1624.1,674.3c-159.6,14.2-292.8-118.9-278.6-278.5,10.9-122.4,109.4-220.9,231.8-231.8,159.6-14.2,292.8,118.9,278.6,278.5-10.9,122.4-109.4,220.9-231.8,231.8ZM1612.2,307.8c-70.7-7.1-129.9,52.1-122.8,122.8,5.2,52.3,47.6,94.7,99.9,99.9,70.7,7.1,129.9-52.1,122.8-122.8-5.2-52.3-47.6-94.7-99.9-99.9Z"/>
  <path class="st0" d="M2158.5,162.9h0c-7.1.1-14.3.4-21.6,1-122.4,10.9-220.9,109.4-231.8,231.8-.6,7.1-.9,14.2-.9,21.2h-.1v246.3c0,3.3,2.7,6,6,6h132.3c3.3,0,6-2.7,6-6v-246.3h0c1.2-60.1,49.9-108.8,110.1-109.8h0s43.9,0,43.9,0c3.3,0,6-2.7,6-6v-132.3c0-3.3-2.7-6-6-6h-43.9Z"/>
  <rect class="st0" x="1156" width="144.3" height="669.3" rx="6" ry="6"/>
  <path class="st0" d="M513.1,168.1h-93.6c-1.6,0-3.1.6-4.2,1.7L19.7,565.5c-1.1,1.1-1.7,2.6-1.7,4.2v93.6c0,3.3,2.7,6,6,6h93.6c1.6,0,3.1-.6,4.2-1.7l142.6-142.6c2.3-2.3,6.1-2.3,8.4,0l142.6,142.6c1.1,1.1,2.6,1.7,4.2,1.7h93.6c3.3,0,6-2.7,6-6v-93.6c0-1.6-.6-3.1-1.7-4.2l-142.6-142.6c-2.3-2.3-2.3-6.1,0-8.4l142.6-142.6c1.1-1.1,1.7-2.6,1.7-4.2v-93.6c0-3.3-2.7-6-6-6Z"/>
  <path class="st0" d="M952.5,188.8c-40.3-19.7-86.6-29.1-135.3-24.8-122.4,10.9-220.9,109.4-231.8,231.8-.7,7.8-.9,15.5-.9,23.1h-.1v413.1c0,3.3,2.7,6,6,6h132.3c3.3,0,6-2.7,6-6v-413.1h0c.2-65.4,56.6-117.7,123.3-111.1,52.3,5.2,94.7,47.5,99.9,99.9.4,3.8.5,7.6.5,11.4,0,2-.2,3.9-.3,5.8-.1,2.4-.2,4.8-.5,7.2,0,.9-.3,1.7-.4,2.5-5.5,39.2-31.3,72-66.5,87.3,0,0,0,0,0,0-3.2,1.4-6.5,2.6-9.8,3.7-.1,0-.2,0-.3.1-3.3,1-6.6,1.9-10,2.7-.2,0-.4,0-.6.1-3.4.7-6.8,1.3-10.2,1.7-.2,0-.5,0-.7,0-3.4.4-6.9.6-10.4.7-2.5,0-5,.2-7.5,0h-36.8c-3.3,0-6,2.7-6,6v132.3c0,3.3,2.7,6,6,6h34.4c10.2.3,20.6,0,31.1-.9,122.4-10.9,220.9-109.4,231.8-231.8.6-7.2.9-14.3.9-21.4.8-102-58.3-190.5-144.2-232.4Z"/>
</svg>